<svg width="35" height="35" viewBox="0 0 35 35" fill="none" xmlns="http://www.w3.org/2000/svg">
<path d="M13.1249 31.1111C14.4673 31.1111 15.5554 30.0229 15.5554 28.6806C15.5554 27.3382 14.4673 26.25 13.1249 26.25C11.7825 26.25 10.6943 27.3382 10.6943 28.6806C10.6943 30.0229 11.7825 31.1111 13.1249 31.1111Z" fill="#F77F00"/>
<path d="M25.7636 31.1111C27.1059 31.1111 28.1941 30.0229 28.1941 28.6806C28.1941 27.3382 27.1059 26.25 25.7636 26.25C24.4212 26.25 23.333 27.3382 23.333 28.6806C23.333 30.0229 24.4212 31.1111 25.7636 31.1111Z" fill="#F77F00"/>
<path d="M32.1809 6.21243C32.0903 6.09478 31.974 5.99943 31.8408 5.93371C31.7077 5.86798 31.5613 5.83362 31.4128 5.83326H8.95447L8.51697 4.44299C8.46891 4.29371 8.38545 4.15827 8.27372 4.04823C8.16199 3.93819 8.02529 3.85682 7.8753 3.81104L3.88919 2.58604C3.76662 2.54838 3.63784 2.53522 3.51019 2.54733C3.38254 2.55944 3.25852 2.59657 3.14522 2.65661C2.9164 2.77785 2.74512 2.98503 2.66905 3.23257C2.59299 3.4801 2.61837 3.74772 2.73962 3.97654C2.86086 4.20536 3.06804 4.37664 3.31558 4.45271L6.80586 5.52215L11.2586 19.5902L9.67391 20.893L9.54752 21.0194C9.15562 21.4732 8.93358 22.049 8.91939 22.6485C8.9052 23.2479 9.09975 23.8337 9.46974 24.3055C9.73473 24.6277 10.0715 24.8835 10.453 25.0523C10.8345 25.2211 11.2503 25.2983 11.667 25.2777H27.8934C28.1512 25.2777 28.3985 25.1753 28.5808 24.993C28.7631 24.8106 28.8656 24.5633 28.8656 24.3055C28.8656 24.0476 28.7631 23.8003 28.5808 23.618C28.3985 23.4357 28.1512 23.3333 27.8934 23.3333H11.5114C11.3995 23.3294 11.2904 23.2968 11.1947 23.2385C11.0991 23.1802 11.02 23.0983 10.9653 23.0005C10.9106 22.9028 10.882 22.7926 10.8823 22.6806C10.8826 22.5685 10.9117 22.4585 10.967 22.361L13.31 20.4166H28.3114C28.5335 20.4231 28.7511 20.3533 28.928 20.2188C29.1049 20.0844 29.2304 19.8934 29.2836 19.6777L32.3947 7.03882C32.4243 6.89388 32.4204 6.7441 32.3833 6.60089C32.3463 6.45769 32.277 6.32483 32.1809 6.21243Z" fill="#F77F00"/>
</svg>
